<svg version="1.2" xmlns="http://www.w3.org/2000/svg" viewBox="0 0 610 178" width="610" height="178">
	<title>bani_logo_hor</title>
	<style>
		.s0 { fill: #000000 } 
	</style>
	<path class="s0" d="m187.1 91.1q-5.2 9-9.1 16.5-1.6 3.2-3.2 6.4c-1 2.1-1.9 4-2.7 5.8q-0.2 0.6-0.4 1.1-0.3 0.6-0.5 1.2-0.2 0.5-0.4 1.1-0.2 0.6-0.4 1.2-0.1 0.3-0.2 0.6 0 0.3-0.1 0.6 0 0.4 0 0.7 0 0.3 0.1 0.6 0.3 0.7 1.2 0.3 0.3-0.2 0.6-0.3 0.3-0.2 0.6-0.4 0.3-0.2 0.6-0.5 0.3-0.2 0.5-0.4 0.4-0.4 0.8-0.7 0.4-0.4 0.7-0.7 0.4-0.4 0.8-0.8 0.3-0.3 0.7-0.7 1.6-1.8 3.2-3.7 3.9-4.5 8.6-10.7l0.6 1q-4.8 6.3-9.3 11.3-1.9 2.1-3.9 4.2-2 2.1-3.9 3.8-0.4 0.4-0.8 0.7-0.5 0.4-0.9 0.7-0.5 0.4-0.9 0.7-0.5 0.4-1 0.7-0.3 0.2-0.7 0.4-0.3 0.2-0.7 0.4-0.4 0.2-0.7 0.3-0.4 0.1-0.8 0.2-0.3 0.1-0.7 0.1-0.3 0-0.6 0-0.3-0.1-0.7-0.1-0.3-0.1-0.6-0.3-0.3-0.1-0.5-0.3-0.2-0.2-0.4-0.4-0.1-0.3-0.2-0.6-0.1-0.3-0.2-0.6 0-0.4 0-0.9-0.1-0.5 0-1 0-0.5 0.1-1 0.1-0.5 0.2-1 0.2-0.8 0.4-1.6 0.3-0.8 0.5-1.5 0.3-0.8 0.6-1.6 0.3-0.8 0.6-1.5-0.5 0.6-1 1.3-0.5 0.6-1 1.2-0.5 0.6-1.1 1.3-0.5 0.6-1 1.2-0.5 0.5-1 1-0.5 0.5-1.1 1-0.5 0.5-1 0.9-0.6 0.5-1.1 1-0.5 0.3-1 0.7-0.4 0.3-0.9 0.6-0.5 0.4-1.1 0.6-0.5 0.3-1 0.6-0.4 0.2-0.8 0.4-0.5 0.1-0.9 0.2-0.4 0.1-0.9 0.2-0.4 0.1-0.9 0.1-0.4 0-0.9-0.1-0.5-0.1-0.9-0.3-0.4-0.2-0.7-0.5-0.4-0.3-0.6-0.8-0.3-0.5-0.5-1-0.2-0.5-0.3-1.1-0.2-0.6-0.2-1.2 0-0.5 0-1.1 0.1-0.9 0.1-1.7 0.1-0.8 0.3-1.7 0.1-0.8 0.4-1.6 0.2-0.9 0.4-1.7 0.4-1 0.7-2 0.4-1.1 0.9-2.1 0.4-1 0.9-2 0.4-1 1-2 0.5-1 1.1-2.1 0.6-1 1.2-2 0.6-1 1.3-2 0.7-1 1.4-2 0.6-0.8 1.3-1.7 0.6-0.9 1.4-1.7 0.7-0.8 1.4-1.6 0.7-0.8 1.5-1.6 0.6-0.6 1.3-1.2 0.7-0.6 1.4-1.2 0.7-0.5 1.4-1 0.7-0.5 1.5-1 0.5-0.4 1.1-0.7 0.6-0.2 1.2-0.5 0.6-0.2 1.3-0.3 0.6-0.1 1.2-0.2 0.7 0 1.3 0.2 0.6 0.2 1.1 0.5 0.5 0.4 0.8 0.9 0.4 0.6 0.5 1.2 0.2 0.8 0.3 1.7 0.1 0.9 0.1 1.9 0 0.9-0.1 1.8-0.1 0.9-0.4 1.7 1.2-2.2 2.6-4.7 1.4-2.5 2.9-5.2zm-34.5 38.5q0.3 0 0.6-0.1 0.3-0.1 0.6-0.2 0.3-0.1 0.6-0.3 0.2-0.2 0.5-0.4 0.4-0.3 0.8-0.6 0.5-0.3 0.9-0.6 0.4-0.3 0.7-0.7 0.4-0.3 0.8-0.7 0.5-0.5 0.9-1 0.5-0.4 0.9-0.9 0.5-0.5 0.9-1.1 0.5-0.5 0.9-1 0.5-0.6 1-1.2 0.4-0.6 0.9-1.2 0.5-0.7 0.9-1.3 0.4-0.6 0.9-1.3 2.3-5.2 6.1-12.4 0.3-0.9 0.6-1.9 0.2-0.9 0.4-1.8 0.1-1 0.2-1.9 0.1-1 0.1-1.9-0.2-2.9-1.8-2.9-0.4 0.1-0.8 0.2-0.4 0.1-0.7 0.3-0.4 0.1-0.7 0.4-0.3 0.2-0.6 0.5-0.5 0.4-0.9 0.9-0.5 0.4-0.9 0.9-0.4 0.5-0.8 1-0.5 0.5-0.8 1-0.6 0.7-1.1 1.3-0.4 0.7-0.9 1.4-0.5 0.7-1 1.5-0.4 0.7-0.9 1.4-1.9 3.3-3.8 6.9c-1.3 2.4-2.4 4.7-3.3 6.9q-0.3 0.7-0.6 1.4-0.3 0.7-0.6 1.4-0.2 0.7-0.4 1.4-0.3 0.7-0.5 1.4-0.1 0.5-0.2 0.9-0.1 0.5-0.2 1-0.1 0.4-0.1 0.9 0 0.5 0 1 0.2 1.4 1.4 1.4z"/>
	<path class="s0" d="m183.5 132.7h-8.1l21.6-41.6h8.2l-5.9 11.4q0.5-0.7 1-1.2 0.5-0.6 1-1.2 0.5-0.6 1.1-1.2 0.5-0.5 1-1.1 0.5-0.5 1-0.9 0.5-0.5 1.1-0.9 0.5-0.5 1-0.9 0.5-0.5 1.1-0.9 0.4-0.3 0.9-0.6 0.5-0.3 1-0.6 0.5-0.3 1-0.6 0.5-0.3 1-0.5 0.4-0.2 0.8-0.3 0.4-0.2 0.8-0.3 0.5-0.1 0.9-0.2 0.4 0 0.8 0 0.5 0 1 0 0.4 0 0.9 0.2 0.4 0.1 0.9 0.3 0.4 0.1 0.8 0.4 0.4 0.2 0.7 0.6 0.3 0.4 0.5 0.8 0.2 0.4 0.3 0.9 0.1 0.4 0.1 0.9 0 0.8-0.1 1.6-0.1 0.8-0.2 1.6-0.1 0.8-0.3 1.6-0.3 0.8-0.6 1.6-0.4 1.3-0.9 2.6-0.6 1.3-1.1 2.6-0.6 1.3-1.2 2.6-0.7 1.2-1.3 2.5c-0.6 1-1.3 2.3-2.2 3.7-0.8 1.5-1.6 3-2.3 4.5q-0.3 0.5-0.5 1-0.2 0.5-0.4 1.1-0.2 0.5-0.4 1-0.2 0.5-0.3 1.1-0.2 0.3-0.3 0.7 0 0.4 0 0.8 0 0.3 0.1 0.7 0.1 0.4 0.2 0.7 0.3 0.5 1.3 0 0.3-0.2 0.6-0.4 0.3-0.2 0.6-0.4 0.3-0.2 0.6-0.5 0.3-0.2 0.5-0.5 1.4-1.2 3-3c1.2-1.1 2.2-2.3 3.4-3.6q3.8-4.5 8.6-10.5l0.6 1q-5.1 6.6-9.8 11.7-2.1 2.2-4.2 4.3-2.2 2.2-4.2 3.8-0.4 0.4-0.9 0.7-0.5 0.4-0.9 0.7-0.5 0.3-1 0.6-0.5 0.4-1 0.6-0.4 0.3-0.8 0.4-0.3 0.2-0.7 0.3-0.4 0.2-0.9 0.2-0.4 0.1-0.8 0.1-0.3 0.1-0.6 0-0.2 0-0.5-0.1-0.2-0.2-0.5-0.3-0.2-0.2-0.3-0.5-0.2-0.2-0.3-0.5-0.1-0.3-0.2-0.6-0.1-0.3-0.1-0.6 0-0.3 0-0.6 0-0.4 0-0.9 0.1-0.4 0.1-0.8 0.1-0.4 0.2-0.8 0.1-0.4 0.2-0.9 0.5-1.8 1.2-3.8 0.5-1.3 1-2.7 0.5-1.3 1.1-2.6 0.6-1.3 1.2-2.6 0.6-1.3 1.3-2.6 1.9-3.6 3.3-6.8 0.3-0.7 0.6-1.4 0.2-0.7 0.5-1.4 0.3-0.7 0.5-1.5 0.2-0.7 0.4-1.4 0.2-0.4 0.3-0.9 0.1-0.5 0.2-0.9 0-0.5 0.1-1 0-0.5 0-1-0.2-1.4-1.3-1.4-0.3 0.1-0.7 0.2-0.3 0.1-0.6 0.2-0.3 0.1-0.6 0.3-0.3 0.1-0.6 0.3-0.5 0.3-0.9 0.6-0.4 0.4-0.9 0.7-0.4 0.3-0.8 0.7-0.4 0.3-0.8 0.7-0.5 0.5-1 1-0.5 0.5-1 1-0.5 0.5-0.9 1-0.5 0.6-1 1.1-0.5 0.6-1 1.2-0.5 0.7-1 1.3-0.5 0.7-0.9 1.3-0.5 0.7-0.9 1.4z"/>
	<path class="s0" d="m226 109.1l13.8-18h8.2q-5.3 9-9.1 16.5-1.7 3.2-3.3 6.4c-1 2.1-1.9 4-2.6 5.8q-0.3 0.6-0.5 1.1-0.2 0.6-0.4 1.2-0.3 0.5-0.4 1.1-0.2 0.6-0.4 1.2-0.1 0.3-0.2 0.6-0.1 0.3-0.1 0.6-0.1 0.4 0 0.7 0 0.3 0 0.6 0.4 0.7 1.4 0.3 0.3-0.2 0.6-0.3 0.3-0.2 0.7-0.4 0.3-0.2 0.6-0.5 0.3-0.2 0.6-0.4 0.4-0.4 0.8-0.7 0.4-0.4 0.8-0.7 0.5-0.4 0.9-0.8 0.4-0.3 0.7-0.7 1.8-1.8 3.6-3.7 4.2-4.5 9.5-10.7l0.6 1q-5.4 6.3-10.2 11.3-2.1 2.1-4.3 4.2-2.1 2.1-4.1 3.8-0.5 0.4-0.9 0.7-0.5 0.4-1 0.7-0.4 0.4-0.9 0.7-0.5 0.4-1 0.7-0.3 0.2-0.7 0.4-0.4 0.2-0.7 0.4-0.4 0.1-0.8 0.3-0.4 0.1-0.8 0.2-2.3 0.3-3.4-1-1-1.4-0.1-5.3 0.4-1.3 0.8-2.7 0.5-1.4 1-2.7 0.5-1.4 1-2.7 0.6-1.3 1.2-2.6 3.1-6.9 9-17.6l-9.3 12zm29.7-32.6c-3.1 2-4.7-1.2-7.1-1.8 1.4-2.4 5.5-3.1 7-1.9q0.2 0.4 0.3 0.9 0 0.5 0.1 1 0 0.4-0.1 0.9-0.1 0.5-0.2 0.9zm-3.4-9.3c0.7 4-2.6 4.4-3.9 6.6-1.7-2.4-0.9-6.8 0.7-7.9q0.4 0 0.9 0.1 0.4 0.1 0.8 0.3 0.4 0.1 0.8 0.4 0.4 0.2 0.7 0.5zm-8.4 0.9c3.2 0.5 2.6 3.9 4 5.8-2.3 0.9-5.5-1.2-5.9-3q0.1-0.4 0.3-0.8 0.2-0.4 0.4-0.8 0.2-0.3 0.5-0.6 0.3-0.3 0.7-0.6zm-2.2 9.5c1.8-3.4 4.2-1.7 6.3-2.6-0.3 2.8-3.4 5.6-5 5.5q-0.3-0.3-0.5-0.6-0.2-0.4-0.4-0.8-0.2-0.3-0.3-0.7-0.1-0.4-0.1-0.8zm8.2 5.9c-2.9-2.9-0.9-5.2-1.4-7.8 2.7 0.9 4.9 5 4.5 6.9q-0.3 0.3-0.7 0.5-0.4 0.2-0.8 0.3-0.4 0.1-0.8 0.1-0.4 0-0.8 0z"/>
	<path class="s0" d="m2 150.3q2.4-0.6 4.7-1.4 2.3-0.8 4.5-1.7 2.2-1 4.4-2.1 2.2-1.1 4.3-2.4 2.1 1.3 4.4 2.4 2.3 1.2 4.6 2.1 2.3 1 4.7 1.8 2.4 0.8 4.9 1.4 3.1 0.7 6.3 1.3 3.1 0.5 6.3 0.9 3.2 0.4 6.5 0.5 3.2 0.2 6.4 0.1 5 0.1 10-0.4 4.9-0.5 9.9-1.5 4.9-1 9.6-2.5 4.8-1.5 9.4-3.5 2-0.9 4-1.9 2-1 3.9-2 1.9-1.1 3.7-2.3 1.9-1.2 3.7-2.5 1.6-1.2 3.2-2.4 1.5-1.3 3-2.6 1.5-1.3 3-2.8 1.4-1.4 2.7-2.9 1.7-0.5 3.3-1.2 1.6-0.7 3.1-1.5 1.5-0.8 3-1.7 1.4-1 2.8-2 1.7-1.3 3.2-2.7 1.6-1.5 3-3 1.5-1.5 2.8-3.1 1.4-1.7 2.6-3.4l-1-0.7q-1.1 1.5-2.3 3-1.2 1.4-2.4 2.8-1.3 1.3-2.7 2.6-1.3 1.3-2.8 2.4-1.2 1-2.4 1.8-1.3 0.9-2.6 1.6-1.3 0.8-2.6 1.4-1.4 0.6-2.8 1.2 1.2-1.5 2.2-3 1.1-1.5 2-3.1 1-1.6 1.8-3.2 0.9-1.7 1.6-3.4 0.7-1.5 1.2-3.1 0.5-1.5 0.9-3.1 0.4-1.6 0.6-3.3 0.3-1.6 0.4-3.3 0.1-1.5 0-3-0.1-1.6-0.4-3.1-0.2-1.5-0.6-3-0.4-1.4-1-2.9-0.6-1.4-1.4-2.8-0.8-1.4-1.8-2.7-0.9-1.3-2-2.5-1.1-1.2-2.3-2.2-1.5-1.2-3.1-2.3-1.6-1.1-3.3-2.1-1.7-0.9-3.5-1.7-1.8-0.8-3.6-1.4-2.4-0.8-4.9-1.5-2.4-0.6-4.9-1.1-2.5-0.5-5-0.8-2.5-0.3-5.1-0.5 2.1-0.2 4.2-0.6 2-0.3 4.1-0.8 2-0.5 4-1.1 2-0.7 3.9-1.4 1.8-0.7 3.4-1.5 1.7-0.7 3.4-1.6 1.6-0.9 3.2-1.9 1.5-0.9 3-2 1.4-1 2.7-2 1.3-1 2.5-2.2 1.2-1.1 2.3-2.3 1.2-1.2 2.2-2.4 1-1.1 1.8-2.3 0.9-1.2 1.6-2.4 0.8-1.3 1.5-2.5 0.7-1.3 1.3-2.6 0.5-1.2 0.9-2.3 0.4-1.2 0.7-2.4 0.3-1.2 0.5-2.4 0.2-1.2 0.3-2.5 0.1-1 0-2.1 0-1-0.2-2-0.2-1.1-0.5-2.1-0.4-1-0.8-1.9-0.5-0.9-1.1-1.8-0.6-0.8-1.3-1.5-0.7-0.8-1.5-1.4-0.8-0.6-1.7-1.1-1.1-0.5-2.3-1-1.3-0.4-2.5-0.7-1.3-0.2-2.5-0.4-1.3-0.1-2.6 0c-21.1 0-37.2 17-48.9 32.6-11.4 15.4-20 32.7-29.1 49.5q-1.6-0.9-3.1-1.6-1.6-0.8-3.2-1.5-1.6-0.7-3.2-1.4-1.7-0.6-3.3-1.2-1.5-0.6-3-1-1.6-0.4-3.2-0.6-1.5-0.3-3.1-0.5-1.6-0.1-3.2-0.1 0 0-0.1 0-0.1 0-0.1 0-0.1 0-0.2 0 0 0-0.1 0 0 0-0.1 0 0 0-0.1 0-0.1 0-0.1 0-0.1 0-0.1 0c-0.1 0-1.9 0-2.8 0.2q-1 0.1-2.1 0.3-1 0.2-2 0.4-1 0.3-2 0.6-1 0.4-1.9 0.8-0.9 0.4-1.7 0.8-0.9 0.5-1.7 1-0.8 0.5-1.6 1.1-0.8 0.5-1.5 1.2-0.7 0.6-1.3 1.2-0.7 0.7-1.3 1.4-0.6 0.7-1.2 1.5-0.5 0.7-1 1.5-0.5 0.8-1 1.7-0.4 0.8-0.8 1.7-0.4 0.8-0.7 1.7-0.3 0.9-0.6 1.8l-0.6 2.5q-0.3 1.1-0.4 2.3-0.1 1.1-0.2 2.3 0 1.1 0 2.3 0 1.1 0.2 2.3 0.1 1.2 0.3 2.4 0.2 1.2 0.5 2.4 0.3 1.2 0.7 2.3 0.4 1.2 0.9 2.3 0.5 1.2 1.1 2.4 0.6 1.2 1.3 2.3 0.7 1.2 1.4 2.3 0.8 1 1.6 2.1 1 1.1 2 2.3 1 1.1 2.1 2.1 1.1 1 2.2 2 1.2 0.9 2.4 1.8-0.9 0.7-1.8 1.3-1 0.7-1.9 1.3-1 0.6-2 1.2-1 0.5-2 1.1-1 0.5-2 1-1.1 0.4-2.1 0.9-1.1 0.4-2.2 0.8-1 0.4-2.1 0.7zm0.7-48.2q0.2-0.8 0.6-1.6 0.3-0.7 0.7-1.5 0.3-0.8 0.8-1.5 0.4-0.8 0.9-1.5 0.4-0.7 0.9-1.3 0.6-0.7 1.1-1.4 0.6-0.6 1.2-1.2 0.6-0.6 1.2-1.1 0.7-0.6 1.4-1.1 0.7-0.5 1.4-0.9 0.8-0.5 1.5-0.9 0.8-0.4 1.6-0.7 0.8-0.4 1.7-0.7 0.9-0.3 1.8-0.5 0.8-0.2 1.7-0.4 0.9-0.1 1.8-0.2l3-0.2q1.5 0.1 2.9 0.3 1.5 0.2 2.9 0.5 1.4 0.4 2.8 0.9 1.3 0.5 2.6 1.1 1.7 0.8 3.4 1.6 1.6 0.8 3.3 1.7 1.6 0.9 3.2 1.8 1.6 0.9 3.1 1.9-4.2 7.7-8.2 14.3-4 6.6-7.9 12.2-1 1.3-1.9 2.6-1 1.3-2 2.6-1 1.2-2 2.5-1.1 1.2-2.1 2.4-1 1.1-2 2.1-1 1.1-2.1 2.1-1.1 1-2.2 1.9-1.1 1-2.2 1.9-1.2-0.8-2.4-1.8-1.2-0.9-2.3-1.9-1.1-1-2.1-2.1-1-1.1-1.9-2.2-0.8-1-1.6-2.1-0.7-1.1-1.4-2.2-0.7-1.2-1.3-2.3-0.5-1.2-1-2.4-0.5-1.1-0.9-2.3-0.3-1.1-0.6-2.3-0.3-1.1-0.5-2.3-0.2-1.2-0.3-2.4-0.1-1.1-0.1-2.2 0-1.1 0.1-2.3 0.1-1.1 0.3-2.2 0.1-1.1 0.4-2.2zm109.9 34.8q-1.6 1.2-3.1 2.2-1.6 1.1-3.3 2-1.6 1-3.3 1.9-1.7 0.8-3.5 1.6-1.9 0.8-3.9 1.6-2 0.7-4 1.4-2.1 0.6-4.1 1.2-2.1 0.5-4.2 0.9-2.3 0.5-4.7 0.9-2.4 0.3-4.8 0.6-2.4 0.2-4.8 0.3-2.4 0.1-4.8 0.1-3.1 0-6.2-0.1-3.2-0.1-6.3-0.5-3.1-0.3-6.2-0.8-3.1-0.6-6.2-1.3-2.4-0.5-4.7-1.3-2.3-0.7-4.6-1.6-2.3-0.8-4.5-1.9-2.2-1-4.4-2.2 1.4-0.9 2.8-1.9 1.3-0.9 2.6-2 1.3-1 2.5-2 1.3-1.1 2.5-2.2 1.2-1.2 2.4-2.4 1.2-1.2 2.3-2.4 1.2-1.3 2.3-2.6 1.1-1.2 2.2-2.6 1.1-1.3 2.2-2.8 1-1.4 2.1-2.8 1-1.5 2-2.9 1-1.5 2-3 4-6.2 7.9-13 5 3.3 10.3 6.8 5.3 3.5 10.7 6.8 5.5 3.3 11.1 6.2 1.4 0.7 2.7 1.4 1.4 0.7 2.8 1.3 1.4 0.6 2.9 1.2 1.4 0.6 2.8 1.1 1.4 0.5 2.8 0.9 1.4 0.5 2.8 0.9 1.4 0.3 2.9 0.6 1.4 0.3 2.8 0.6 1.4 0.2 2.8 0.4 1.4 0.1 2.9 0.2 1.4 0 2.8 0 1.4-0.1 2.8-0.2-1.1 1.3-2.3 2.6-1.2 1.2-2.5 2.4-1.3 1.2-2.6 2.3-1.3 1.1-2.7 2.1zm11.9-11.7q-1.4 0.1-2.7 0.1-1.4 0.1-2.8 0-1.3-0.1-2.6-0.3-1.4-0.2-2.7-0.4-1.4-0.3-2.8-0.7-1.4-0.3-2.7-0.8-1.4-0.4-2.7-0.9-1.4-0.5-2.7-1-1.4-0.6-2.8-1.2-1.4-0.7-2.8-1.3-1.4-0.7-2.7-1.4-1.4-0.8-2.7-1.5-5.5-3.2-11-6.7-5.4-3.5-10.9-7.2-5.4-3.6-10.8-6.9 2.5-4.5 5-9.2c4.8-9.1 9.9-18 14.8-27q4.7-8.5 9.2-16.6 1.2-1.9 2.4-3.8 1.3-2 2.6-3.8 1.4-1.9 2.8-3.7 1.3-1.9 2.8-3.7 1.1-1.3 2.3-2.7 1.2-1.3 2.4-2.5 1.3-1.2 2.7-2.4 1.3-1.1 2.7-2.2 1.2-0.9 2.4-1.7 1.3-0.8 2.6-1.5 1.3-0.6 2.7-1.2 1.3-0.6 2.7-1 1.4-0.4 2.9-0.8 1.4-0.3 2.8-0.5 1.5-0.2 2.9-0.3 1.5-0.1 2.9-0.1 2-0.1 3.8 0.4 1.8 0.6 3.4 1.7 1.5 1.2 2.5 2.8 1 1.6 1.4 3.5 0.2 1.1 0.3 2.1 0.1 1.1 0.1 2.2 0 1.1-0.2 2.2-0.1 1-0.3 2.1-0.3 1.3-0.6 2.5-0.4 1.3-0.8 2.5-0.5 1.3-1 2.5-0.6 1.2-1.2 2.3-0.7 1.4-1.5 2.6-0.8 1.3-1.7 2.5-0.9 1.3-1.8 2.5-1 1.1-2 2.2-1.1 1.3-2.3 2.4-1.2 1.2-2.5 2.3-1.3 1.1-2.6 2-1.4 1-2.8 1.9-1.5 1-3.1 1.9-1.6 0.8-3.3 1.6-1.7 0.8-3.4 1.4-1.7 0.7-3.4 1.2-2 0.6-4 1.1-2 0.4-4 0.7-2 0.3-4.1 0.4-2 0.2-4.1 0.1l0.3 0.9q2.4-0.1 4.7 0.1 2.3 0.1 4.7 0.5 2.3 0.3 4.5 0.8 2.3 0.6 4.6 1.3 1.8 0.6 3.5 1.3 1.7 0.8 3.4 1.7 1.6 0.9 3.2 2 1.5 1 2.9 2.2 1.3 1.1 2.4 2.4 1.2 1.2 2.2 2.5 0.9 1.4 1.8 2.8 0.8 1.4 1.4 3 0.7 1.5 1.2 3 0.5 1.6 0.8 3.2 0.4 1.6 0.5 3.3 0.2 1.6 0.2 3.2 0 1.8-0.1 3.5-0.1 1.8-0.4 3.5-0.3 1.7-0.7 3.4-0.5 1.7-1 3.3-0.7 1.8-1.4 3.6-0.8 1.7-1.7 3.4-0.8 1.7-1.9 3.3-1 1.6-2.1 3.1z"/>
	<path class="s0" d="m464.6 91.6q-5.1 9-9 16.5-1.7 3.3-3.2 6.4c-1 2.1-1.9 4-2.7 5.8q-0.2 0.6-0.5 1.1-0.2 0.6-0.4 1.2-0.2 0.6-0.4 1.1-0.2 0.6-0.4 1.2-0.1 0.3-0.2 0.6-0.1 0.3-0.1 0.6 0 0.4 0 0.7 0 0.3 0 0.6 0.3 0.8 1.3 0.3 0.3-0.2 0.6-0.3 0.3-0.2 0.6-0.4 0.3-0.2 0.6-0.4 0.2-0.3 0.5-0.5 0.4-0.3 0.8-0.7 0.3-0.4 0.7-0.7 0.4-0.4 0.7-0.8 0.4-0.3 0.7-0.7 1.7-1.8 3.3-3.7 3.9-4.5 8.6-10.7l0.6 1q-4.8 6.3-9.3 11.3-1.9 2.2-3.9 4.2-2 2.1-3.9 3.8-0.4 0.4-0.9 0.7-0.4 0.4-0.9 0.8-0.4 0.3-0.9 0.6-0.4 0.4-0.9 0.7-0.3 0.2-0.7 0.4-0.3 0.3-0.7 0.4-0.4 0.2-0.8 0.3-0.4 0.1-0.8 0.2-0.3 0.1-0.6 0.1-0.3 0-0.6 0-0.4 0-0.7-0.1-0.3-0.1-0.6-0.2-0.3-0.2-0.5-0.4-0.2-0.2-0.4-0.4-0.2-0.3-0.3-0.5-0.1-0.3-0.1-0.6 0-0.5-0.1-1 0-0.5 0.1-1 0-0.5 0.1-1 0-0.5 0.2-0.9 0.2-0.8 0.4-1.6 0.2-0.8 0.5-1.6 0.2-0.8 0.5-1.6 0.3-0.8 0.7-1.5-0.5 0.6-1 1.3-0.5 0.6-1 1.2-0.6 0.7-1.1 1.3-0.5 0.6-1.1 1.2-0.5 0.5-1 1-0.5 0.5-1 1-0.5 0.5-1.1 1-0.5 0.4-1 0.9-0.5 0.4-1 0.7-0.5 0.4-1 0.7-0.5 0.3-1 0.6-0.5 0.3-1 0.5-0.5 0.2-0.9 0.4-0.4 0.1-0.8 0.3-0.5 0.1-0.9 0.1-0.5 0.1-0.9 0.1-0.5 0-0.9-0.1-0.5-0.1-0.9-0.3-0.4-0.2-0.8-0.5-0.3-0.3-0.6-0.7-0.2-0.5-0.4-1.1-0.3-0.5-0.4-1.1-0.1-0.6-0.2-1.1 0-0.6 0-1.2 0.1-0.8 0.2-1.7 0.1-0.8 0.2-1.7 0.2-0.8 0.4-1.6 0.2-0.8 0.5-1.6 0.3-1.1 0.7-2.1 0.4-1.1 0.8-2.1 0.4-1 0.9-2 0.5-1 1-1.9 0.5-1.1 1.1-2.1 0.6-1.1 1.2-2.1 0.7-1 1.3-2 0.7-1 1.4-1.9 0.6-0.9 1.3-1.8 0.7-0.8 1.4-1.7 0.7-0.8 1.4-1.6 0.8-0.8 1.6-1.6 0.6-0.6 1.2-1.2 0.7-0.6 1.4-1.1 0.7-0.6 1.4-1.1 0.8-0.5 1.5-1 0.6-0.4 1.1-0.6 0.6-0.3 1.2-0.5 0.7-0.2 1.3-0.4 0.6-0.1 1.3-0.1 0.6-0.1 1.2 0.1 0.6 0.2 1.1 0.6 0.5 0.3 0.9 0.9 0.3 0.5 0.4 1.1 0.3 0.9 0.4 1.8 0.1 0.9 0.1 1.8-0.1 0.9-0.2 1.8-0.1 0.9-0.3 1.8 1.1-2.3 2.5-4.8 1.4-2.4 2.9-5.1zm-34.5 38.4q0.3 0 0.6-0.1 0.3 0 0.6-0.2 0.3-0.1 0.6-0.2 0.3-0.2 0.5-0.4 0.5-0.3 0.9-0.6 0.4-0.3 0.8-0.6 0.4-0.4 0.8-0.7 0.4-0.4 0.7-0.7 0.5-0.5 1-1 0.4-0.5 0.9-1 0.4-0.5 0.9-1 0.4-0.5 0.8-1 0.5-0.6 1-1.2 0.5-0.6 0.9-1.3 0.5-0.6 0.9-1.2 0.5-0.7 0.9-1.3 2.3-5.2 6.1-12.5 0.4-0.9 0.6-1.8 0.3-0.9 0.4-1.9 0.2-0.9 0.3-1.9 0-0.9 0-1.9-0.1-2.8-1.8-2.8-0.4 0-0.8 0.1-0.4 0.1-0.7 0.3-0.4 0.2-0.7 0.4-0.3 0.3-0.5 0.6-0.5 0.4-1 0.8-0.4 0.5-0.9 1-0.4 0.4-0.8 0.9-0.4 0.5-0.8 1-0.5 0.7-1 1.4-0.5 0.7-1 1.4-0.5 0.7-0.9 1.4-0.5 0.7-0.9 1.5-2 3.2-3.9 6.8-1.9 3.7-3.3 7-0.3 0.6-0.6 1.3-0.3 0.7-0.5 1.4-0.3 0.7-0.5 1.4-0.2 0.7-0.4 1.5-0.2 0.4-0.3 0.9-0.1 0.5-0.2 0.9 0 0.5-0.1 1 0 0.5 0 0.9 0.2 1.5 1.4 1.4z"/>
	<path class="s0" d="m453.2 133.2q20-39.2 37.3-69.2 4.9-8.5 9.8-16.8 4.9-8.3 9.7-15.7 4.7-7.4 9.1-13.5 4.3-6.2 8-10.4 0.7-0.9 1.5-1.7 0.7-0.8 1.6-1.6 0.8-0.8 1.7-1.5 0.8-0.8 1.8-1.4 2.8-2 4.6-1.1 2 1 1.8 4.1-0.1 1-0.3 2-0.2 1-0.4 2-0.3 1-0.7 1.9-0.3 1-0.8 1.9-0.6 1.4-1.2 2.7-0.7 1.4-1.4 2.7-0.7 1.3-1.4 2.6-0.7 1.3-1.5 2.6-3.6 6-8.1 12.7-4.5 6.7-9.8 14-5.3 7.3-10.8 14.6-5.5 7.4-11.1 14.4-5.6 7-10.7 13.3-5 9.8-9.1 18.1-4.1 8.3-6.9 14 2.1-3 4.8-6.5 2.6-3.6 5.5-7.2 2.9-3.6 6-7 0.7-0.8 1.5-1.6 0.7-0.7 1.4-1.5 0.8-0.7 1.6-1.5 0.7-0.7 1.5-1.4 0.7-0.6 1.4-1.2 0.6-0.5 1.3-1.1 0.8-0.5 1.5-1 0.7-0.5 1.5-0.9 0.5-0.4 1.1-0.7 0.6-0.2 1.2-0.4 0.7-0.2 1.3-0.3 0.6-0.2 1.3-0.2 0.5 0 1.1 0 0.5 0.1 1 0.3 0.5 0.2 1 0.5 0.4 0.4 0.8 0.8 0.3 0.4 0.5 0.9 0.2 0.5 0.4 1 0.1 0.5 0.2 1 0 0.6 0 1.1-0.1 0.6-0.2 1.3-0.1 0.6-0.3 1.3-0.1 0.6-0.4 1.2-0.2 0.7-0.5 1.2-0.7 1.5-1.7 2.8-0.9 1.3-2.1 2.4-1.2 1-2.5 1.9-1.4 0.9-2.8 1.5-0.9 0.3-1.8 0.6-0.9 0.2-1.8 0.3-0.9 0.2-1.8 0.2-0.9 0-1.8-0.1-0.5 0.9-1 1.8-0.4 0.9-0.8 1.9-0.4 0.9-0.8 1.9-0.4 0.9-0.7 1.9-0.1 0.4-0.2 0.7-0.1 0.4-0.2 0.8-0.1 0.4-0.2 0.7-0.1 0.4-0.1 0.8-0.1 0.4-0.1 0.7-0.1 0.4-0.1 0.7 0 0.4 0 0.8 0 0.3 0.1 0.7 0 0.3 0.1 0.6 0 0.3 0.1 0.7 0.1 0.3 0.2 0.6 0.1 0.3 0.3 0.6 0.1 0.2 0.3 0.5 0.2 0.2 0.4 0.5 0.3 0.2 0.5 0.4 0.3 0.1 0.6 0.3 0.3 0.1 0.7 0.2 0.3 0.1 0.7 0.1 0.4 0 0.7 0 0.4-0.1 0.7-0.2 0.5-0.2 0.9-0.4 0.5-0.2 0.9-0.4 0.4-0.3 0.8-0.5 0.4-0.3 0.8-0.6 0.5-0.4 0.9-0.8 0.5-0.3 1-0.7 0.4-0.5 0.9-0.9 0.4-0.4 0.8-0.8 1.9-1.9 3.6-4 1.1-1.4 2.3-2.8 1.1-1.5 2.1-2.9 1.1-1.4 2.1-2.9 1-1.5 2-3l1 0.5q-0.9 1.6-2 3.2-1 1.5-2.1 3-1.1 1.5-2.3 3-1.1 1.4-2.3 2.8-2 2.3-4.2 4.5-0.5 0.5-1.1 1-0.5 0.5-1.1 0.9-0.6 0.5-1.2 1-0.5 0.4-1.1 0.9-0.6 0.4-1.1 0.8-0.6 0.3-1.2 0.7-0.6 0.3-1.2 0.6-0.6 0.3-1.2 0.6-0.6 0.2-1.1 0.4-0.6 0.2-1.2 0.3-0.6 0.2-1.2 0.2-0.6 0.1-1.2 0.1-0.5 0-1 0-0.4-0.1-0.9-0.2-0.5-0.1-0.9-0.4-0.4-0.2-0.8-0.5-0.3-0.2-0.6-0.6-0.3-0.3-0.5-0.6-0.2-0.4-0.3-0.8-0.2-0.4-0.3-0.8-0.1-0.5-0.2-1 0-0.5-0.1-1 0-0.5 0-1 0.1-0.5 0.1-1 0.1-0.5 0.2-1.1 0.1-0.6 0.2-1.2 0.1-0.5 0.2-1.1 0.2-0.6 0.3-1.1 0.5-1.6 1-3.2 0.6-1.6 1.2-3.2 0.6-1.5 1.3-3.1 0.7-1.5 1.5-3 0.6 0.5 1.3 0.8 0.8 0.4 1.5 0.6 0.8 0.2 1.6 0.2 0.8 0.1 1.6 0.1 0.7-0.1 1.3-0.3 0.7-0.2 1.3-0.4 0.7-0.3 1.3-0.6 0.6-0.3 1.1-0.7 0.6-0.5 1.1-0.9 0.6-0.5 1-1 0.5-0.6 1-1.1 0.4-0.6 0.8-1.2 0.4-0.5 0.7-1.1 0.3-0.6 0.6-1.2 0.3-0.6 0.6-1.2 0.2-0.6 0.5-1.3 0.1-0.5 0.3-1 0.1-0.4 0.1-1 0.1-0.5 0.1-1 0-0.5-0.1-1-0.2-1.6-1.7-1.6-0.6 0-1.2 0.2-0.6 0.1-1.1 0.3-0.6 0.2-1.1 0.5-0.6 0.3-1 0.7-0.8 0.5-1.5 1-0.7 0.6-1.3 1.2-0.7 0.5-1.4 1.1-0.6 0.6-1.2 1.2-2.9 2.8-5.9 6.4-3.1 3.6-5.9 7.3-6.8 8.8-14 20zm84.5-130.8q-1.2-0.7-3.3 0.9-0.7 0.5-1.3 1.2-0.7 0.6-1.3 1.2-0.6 0.6-1.2 1.3-0.5 0.7-1.1 1.4-2.8 3.5-6.2 8.7-3.4 5.1-7.2 11.4-3.8 6.4-7.8 13.6-4.1 7.2-8.2 14.8-4.1 7.6-8.2 15.3-4 7.7-7.8 15.1 4.9-6.1 10.1-12.8 5.2-6.7 10.3-13.4 5.1-6.8 10-13.5 4.9-6.7 9-12.9 4.1-6.2 7.4-11.6 0.7-1.2 1.4-2.4 0.7-1.2 1.3-2.4 0.7-1.2 1.3-2.4 0.6-1.3 1.2-2.5 0.5-0.8 0.8-1.7 0.4-0.9 0.7-1.8 0.3-0.8 0.5-1.7 0.3-0.9 0.5-1.9 0.4-2.9-0.9-3.9z"/>
	<path class="s0" d="m533.4 92.1q0.4 0.2 0.8 0.5 0.4 0.3 0.7 0.6 0.3 0.4 0.5 0.8 0.2 0.4 0.3 0.8 0.1 0.5 0.1 1 0 0.5-0.1 1 0 0.5-0.2 1-0.1 0.4-0.3 0.9-0.2 0.6-0.5 1.2-0.3 0.5-0.6 1.1-0.3 0.6-0.6 1.1-0.4 0.5-0.8 1-0.4 0.6-0.9 1.2-0.5 0.6-1 1.2-0.5 0.5-1 1.1-0.5 0.5-1.1 1-0.5 0.6-1.1 1.1-0.6 0.5-1.2 1-0.6 0.5-1.2 1-0.6 0.4-1.3 0.9-0.6 0.4-1.2 0.8-0.6 0.4-1.2 0.7-0.6 0.4-1.3 0.7-0.6 0.3-1.3 0.6-0.5 0.2-1.1 0.4-0.5 0.2-1.1 0.3-0.6 0.1-1.2 0.2-0.6 0.1-1.2 0.1-0.4 0-0.9-0.1-0.5 0-0.9-0.2-0.5-0.2-0.9-0.4-0.4-0.3-0.8-0.6-0.3 0.7-0.7 1.5-0.3 0.7-0.6 1.5-0.3 0.8-0.6 1.5-0.3 0.8-0.5 1.6-0.2 0.6-0.4 1.3-0.2 0.6-0.3 1.3-0.2 0.6-0.3 1.3-0.1 0.6-0.1 1.3-0.1 0.5-0.1 1 0.1 0.4 0.1 0.9 0.1 0.5 0.3 0.9 0.1 0.4 0.3 0.9 0.2 0.3 0.5 0.6 0.3 0.3 0.7 0.5 0.4 0.2 0.8 0.3 0.4 0.1 0.8 0 0.5 0 0.9 0 0.5-0.1 0.9-0.2 0.5-0.1 0.9-0.3 0.4-0.2 0.8-0.4 0.6-0.3 1.1-0.6 0.6-0.3 1.1-0.6 0.6-0.4 1.1-0.7 0.5-0.4 1-0.7 2.3-1.7 4.7-3.8 2.4-2.1 4.7-4.4 5.3-5.2 11-12l0.7 0.8q-1.7 2.2-3.6 4.3-1.8 2.1-3.8 4.2-1.9 2-3.9 4-2 2-4.1 3.9-3.2 2.7-6.4 5-0.7 0.5-1.5 1-0.7 0.4-1.5 0.8-0.8 0.5-1.6 0.8-0.8 0.4-1.6 0.7-0.7 0.3-1.4 0.5-0.7 0.1-1.4 0.2-0.7 0.1-1.4 0.1-0.7 0-1.4-0.1-0.6-0.1-1.3-0.3-0.6-0.3-1.1-0.6-0.6-0.4-1.1-0.9-0.4-0.5-0.8-1.1-0.4-0.6-0.7-1.3-0.3-0.6-0.6-1.3-0.2-0.8-0.3-1.5-0.1-0.7-0.1-1.5 0.1-0.8 0.1-1.7 0.1-0.8 0.3-1.7 0.1-0.8 0.4-1.6 0.2-0.8 0.5-1.6 0.3-0.9 0.7-1.8 0.4-0.9 0.9-1.8 0.4-0.9 0.9-1.7 0.5-0.9 1-1.7 0.5-0.9 1.1-1.8 0.6-0.9 1.3-1.7 0.6-0.9 1.3-1.7 0.7-0.8 1.4-1.6 0.7-0.8 1.4-1.6 0.7-0.7 1.5-1.5 0.8-0.7 1.5-1.4 0.8-0.7 1.7-1.4 0.7-0.6 1.5-1.2 0.7-0.6 1.5-1.2 0.8-0.5 1.6-1 0.9-0.5 1.7-1 0.7-0.4 1.5-0.7 0.7-0.4 1.4-0.6 0.8-0.3 1.6-0.5 0.7-0.3 1.5-0.4 0.7-0.2 1.3-0.2 0.7 0 1.3 0 0.7 0.1 1.3 0.3 0.6 0.2 1.2 0.4zm-3.4 0.8q-1.8-0.6-4 1-0.7 0.4-1.4 0.9-0.6 0.6-1.2 1.1-0.6 0.6-1.2 1.2-0.6 0.5-1.1 1.2-0.7 0.8-1.3 1.6-0.7 0.8-1.3 1.6-0.6 0.8-1.2 1.7-0.6 0.8-1.2 1.7-0.6 0.9-1.2 1.8-0.6 1-1.1 1.9-0.6 1-1.1 1.9-0.5 1-1 2 0.2 0.4 0.5 0.6 0.2 0.3 0.6 0.6 0.3 0.2 0.7 0.3 0.4 0.1 0.8 0.1 0.5 0 0.9-0.1 0.5 0 0.9-0.2 0.4-0.1 0.8-0.3 0.4-0.1 0.8-0.4 0.5-0.2 1-0.6 0.5-0.3 1-0.6 0.5-0.4 1-0.7 0.4-0.4 0.9-0.8 0.5-0.4 0.9-0.9 0.5-0.5 1-1 0.5-0.5 0.9-1 0.5-0.5 0.9-1 0.4-0.5 0.8-1.1 0.5-0.5 0.9-1 0.3-0.6 0.7-1.1 0.4-0.6 0.8-1.2 0.3-0.5 0.6-1 0.3-0.5 0.5-1 0.3-0.5 0.5-1.1 0.3-0.5 0.5-1.1 0.2-0.3 0.3-0.8 0.1-0.4 0.2-0.8 0.1-0.4 0.1-0.8 0.1-0.5 0.1-0.9 0-0.3-0.1-0.6-0.1-0.2-0.3-0.5-0.2-0.2-0.4-0.4-0.3-0.2-0.5-0.3z"/>
	<path class="s0" d="m547.1 99.5q-1.1 1.3-2.4 2.7l-2.7 3-2.7 3-2.4 2.8h-1.5q3.1-3.7 5.6-6.6 2.5-2.9 4.6-4.9h-1q-0.4 0-0.8 0-0.4 0-0.8-0.1-0.4-0.1-0.8-0.3-0.3-0.1-0.7-0.3-0.3-0.1-0.5-0.3-0.2-0.2-0.4-0.5-0.2-0.2-0.4-0.5-0.2-0.2-0.3-0.5-0.1-0.3-0.2-0.6-0.1-0.3-0.1-0.6 0-0.3 0-0.6 0-0.3 0.1-0.6 0.1-0.3 0.2-0.6 0.1-0.4 0.2-0.7 0.2-0.3 0.4-0.5 0.2-0.3 0.4-0.6 0.3-0.3 0.6-0.5 0.3-0.3 0.7-0.5 0.3-0.3 0.7-0.5 0.3-0.2 0.7-0.4 0.5-0.2 1-0.3 0.5-0.2 1.1-0.3 0.5-0.1 1-0.2 0.6 0 1.1 0 0.4-0.1 0.7-0.1 0.4 0.1 0.8 0.1 0.3 0.1 0.7 0.3 0.3 0.1 0.6 0.3 0.2 0.1 0.4 0.3 0.2 0.2 0.3 0.5 0.2 0.2 0.2 0.5 0.1 0.2 0.1 0.5 0 0.3 0 0.7-0.1 0.3-0.2 0.7 0 0.3-0.2 0.6-0.1 0.3-0.3 0.6-0.2 0.4-0.4 0.8-0.3 0.4-0.5 0.8-0.3 0.4-0.6 0.7-0.3 0.4-0.6 0.7l8 0.1q0.6-0.1 1.2 0 0.6 0 1.2 0.1 0.5 0.2 1.1 0.3 0.6 0.2 1.1 0.5 0.4 0.2 0.7 0.5 0.3 0.3 0.6 0.7 0.2 0.4 0.3 0.8 0.2 0.4 0.2 0.9 0 0.6-0.1 1.3-0.1 0.7-0.2 1.3-0.2 0.7-0.4 1.3-0.2 0.7-0.5 1.3-0.4 1-0.9 2-0.5 1-1 2-0.5 1-1.1 1.9-0.6 1-1.2 1.9-0.6 1.1-1.3 2.4-0.8 1.4-1.5 2.8-0.7 1.5-1.3 2.9-0.2 0.3-0.3 0.7-0.1 0.3-0.2 0.6-0.1 0.3-0.2 0.6-0.1 0.4-0.2 0.7 0 0.2-0.1 0.5 0 0.2 0 0.4 0 0.3 0 0.5 0.1 0.2 0.1 0.5 0.1 0.2 0.2 0.3 0.1 0.2 0.2 0.3 0.2 0.1 0.4 0.1 0.2 0.1 0.3 0.1 0.3 0 0.5-0.1 0.3 0 0.5-0.1 0.3-0.1 0.5-0.3 0.2-0.1 0.4-0.3 0.4-0.2 0.7-0.5 0.3-0.2 0.7-0.5 0.3-0.2 0.6-0.5 0.3-0.3 0.6-0.6 1.5-1.3 3.1-3 1.6-1.7 3.2-3.5 3.7-4.1 7.8-9.6l0.6 1q-1.1 1.6-2.3 3.1-1.2 1.5-2.4 2.9-1.2 1.5-2.4 3-1.3 1.4-2.6 2.8-2 2.2-4.2 4.3-0.6 0.5-1.1 1-0.6 0.5-1.1 0.9-0.6 0.5-1.1 1-0.6 0.4-1.2 0.9-0.5 0.3-1 0.7-0.5 0.4-1 0.7-0.5 0.3-1.1 0.6-0.5 0.3-1.1 0.6-0.4 0.2-0.9 0.4-0.4 0.2-0.9 0.3-0.5 0.2-1 0.2-0.5 0.1-1 0.1-0.2 0-0.5 0-0.3 0-0.5-0.2-0.3-0.1-0.5-0.2-0.2-0.2-0.4-0.4-0.1-0.3-0.2-0.5-0.1-0.3-0.2-0.6 0-0.3 0-0.6-0.1-0.3 0-0.6 0-0.4 0.1-0.8 0-0.4 0.1-0.8 0.1-0.3 0.2-0.7 0.1-0.4 0.2-0.8 0.1-0.5 0.3-0.9 0.2-0.5 0.3-0.9 0.2-0.5 0.4-0.9 0.2-0.5 0.4-0.9 0.5-1.3 1.2-2.5 0.6-1.3 1.2-2.5 0.7-1.2 1.4-2.4 0.6-1.3 1.4-2.5 2.3-3.9 4-6.6 0.3-0.5 0.7-1 0.3-0.6 0.6-1.1 0.3-0.6 0.5-1.1 0.3-0.6 0.5-1.2 0.6-1.6-0.3-2.3-0.9-0.8-3.8-0.8zm1.4-8.4q-0.4 0-0.7 0.1-0.4 0-0.7 0.1-0.3 0.2-0.6 0.4-0.3 0.1-0.6 0.4-0.2 0.2-0.5 0.4-0.2 0.3-0.4 0.6-0.2 0.3-0.4 0.6-0.2 0.3-0.3 0.6-0.1 0.2-0.2 0.5 0 0.3 0 0.6 0 0.3 0.1 0.6 0.1 0.2 0.3 0.5 0.6 1 2.9 1 0.2-0.3 0.5-0.6 0.3-0.3 0.5-0.7 0.2-0.3 0.5-0.6 0.2-0.4 0.4-0.7 0.1-0.3 0.2-0.5 0.1-0.3 0.2-0.5 0.1-0.3 0.1-0.5 0.1-0.3 0.1-0.6 0-0.2 0-0.3 0-0.2-0.1-0.4 0-0.1-0.1-0.3-0.1-0.2-0.2-0.3-0.1-0.1-0.2-0.2-0.1-0.1-0.3-0.1-0.1-0.1-0.2-0.1-0.2 0-0.3 0z"/>
	<path class="s0" d="m279.5 150.3q2.4-0.6 4.7-1.4 2.3-0.8 4.5-1.7 2.3-1 4.4-2.1 2.2-1.1 4.3-2.4 2.2 1.3 4.4 2.4 2.3 1.2 4.6 2.1 2.4 1 4.8 1.8 2.4 0.8 4.8 1.4 3.1 0.7 6.3 1.3 3.2 0.5 6.4 0.9 3.2 0.4 6.4 0.5 3.2 0.2 6.4 0.1 5 0.1 10-0.4 5-0.5 9.9-1.5 4.9-1 9.7-2.5 4.7-1.5 9.3-3.5 2-0.9 4-1.9 2-1 3.9-2 1.9-1.1 3.8-2.3 1.8-1.2 3.6-2.5 1.6-1.2 3.2-2.4 1.6-1.3 3.1-2.6 1.5-1.3 2.9-2.8 1.5-1.4 2.8-2.9 1.6-0.5 3.2-1.2 1.6-0.7 3.2-1.5 1.5-0.8 2.9-1.7 1.5-1 2.8-2 1.7-1.3 3.3-2.7 1.5-1.5 3-3 1.5-1.5 2.8-3.1 1.3-1.7 2.5-3.4l-0.9-0.7q-1.1 1.5-2.3 3-1.2 1.4-2.5 2.8-1.3 1.3-2.6 2.6-1.4 1.3-2.8 2.4-1.2 1-2.5 1.8-1.2 0.9-2.5 1.6-1.3 0.8-2.7 1.4-1.3 0.6-2.7 1.2 1.1-1.5 2.2-3 1-1.5 2-3.1 0.9-1.6 1.8-3.2 0.8-1.7 1.6-3.4 0.6-1.5 1.2-3.1 0.5-1.5 0.9-3.1 0.4-1.6 0.6-3.3 0.2-1.6 0.3-3.3 0.1-1.5 0-3-0.1-1.6-0.3-3.1-0.3-1.5-0.7-3-0.4-1.4-1-2.9-0.6-1.4-1.4-2.8-0.8-1.4-1.7-2.7-1-1.3-2.1-2.5-1.1-1.2-2.3-2.2-1.5-1.2-3.1-2.3-1.6-1.1-3.3-2.1-1.7-0.9-3.4-1.7-1.8-0.8-3.7-1.4-2.4-0.8-4.8-1.5-2.5-0.6-5-1.1-2.4-0.5-5-0.8-2.5-0.3-5-0.5 2.1-0.2 4.1-0.6 2.1-0.3 4.1-0.8 2.1-0.5 4.1-1.1 1.9-0.7 3.9-1.4 1.7-0.7 3.4-1.5 1.7-0.7 3.3-1.6 1.6-0.9 3.2-1.9 1.6-0.9 3.1-2 1.3-1 2.6-2 1.3-1 2.5-2.2 1.2-1.1 2.4-2.3 1.1-1.2 2.2-2.4 0.9-1.1 1.8-2.3 0.8-1.2 1.6-2.4 0.8-1.3 1.4-2.5 0.7-1.3 1.3-2.6 0.5-1.2 0.9-2.3 0.4-1.2 0.7-2.4 0.3-1.2 0.5-2.4 0.2-1.2 0.3-2.5 0.1-1 0.1-2.1-0.1-1-0.3-2-0.2-1.1-0.5-2.1-0.3-1-0.8-1.9-0.4-0.9-1-1.8-0.6-0.8-1.3-1.5-0.7-0.8-1.5-1.4-0.8-0.6-1.7-1.1-1.2-0.5-2.4-1-1.2-0.4-2.5-0.7-1.2-0.2-2.5-0.3-1.3-0.1-2.6-0.1c-21.1 0-37.2 17-48.9 32.7-11.4 15.4-20 32.6-29.2 49.4q-1.5-0.8-3.1-1.6-1.5-0.8-3.1-1.5-1.6-0.7-3.2-1.3-1.7-0.7-3.3-1.3-1.5-0.5-3-0.9-1.6-0.4-3.2-0.7-1.5-0.3-3.1-0.4-1.6-0.1-3.2-0.2 0 0-0.1 0-0.1 0-0.1 0-0.1 0-0.2 0 0 0-0.1 0 0 0-0.1 0-0.1 0-0.1 0-0.1 0-0.1 0-0.1 0-0.1 0c-0.1 0-1.9 0-2.8 0.2q-1.1 0.1-2.1 0.3-1 0.2-2 0.5-1 0.3-2 0.6-1 0.3-1.9 0.8-0.9 0.3-1.7 0.8-0.9 0.4-1.7 1-0.8 0.5-1.6 1-0.8 0.6-1.5 1.2-0.7 0.6-1.4 1.3-0.6 0.7-1.2 1.4-0.6 0.7-1.2 1.4-0.5 0.8-1 1.6-0.5 0.8-1 1.6-0.4 0.9-0.8 1.7-0.4 0.9-0.7 1.8-0.3 0.9-0.6 1.8l-0.6 2.5q-0.3 1.1-0.4 2.2-0.1 1.2-0.2 2.3 0 1.2 0 2.3 0 1.2 0.1 2.3 0.2 1.2 0.4 2.4 0.2 1.2 0.5 2.4 0.3 1.2 0.7 2.4 0.4 1.1 0.9 2.2 0.5 1.3 1.1 2.5 0.6 1.1 1.3 2.3 0.7 1.1 1.4 2.2 0.8 1.1 1.6 2.1 1 1.2 2 2.3 1 1.1 2.1 2.1 1 1 2.2 2 1.1 0.9 2.3 1.8-1.8 1.4-3.7 2.6-1.9 1.2-4 2.3-2 1-4.1 1.9-2.1 0.8-4.3 1.5zm0.7-48.1q0.3-0.8 0.6-1.6 0.3-0.8 0.7-1.6 0.4-0.8 0.8-1.5 0.4-0.7 0.9-1.5 0.5-0.7 1-1.3 0.5-0.7 1.1-1.3 0.5-0.7 1.2-1.3 0.6-0.5 1.2-1.1 0.7-0.6 1.4-1.1 0.7-0.5 1.4-0.9 0.7-0.5 1.5-0.9 0.8-0.4 1.6-0.7 0.8-0.3 1.7-0.6 0.8-0.3 1.7-0.6 0.9-0.2 1.8-0.3 0.9-0.2 1.8-0.3l3-0.2q1.5 0.1 2.9 0.3 1.4 0.2 2.9 0.6 1.4 0.3 2.7 0.8 1.4 0.5 2.7 1.1 1.7 0.8 3.3 1.6 1.7 0.9 3.3 1.7 1.6 0.9 3.2 1.8 1.6 1 3.2 1.9-4.3 7.7-8.2 14.3-4 6.6-7.9 12.2-0.9 1.4-1.9 2.7-1 1.2-2 2.5-1 1.3-2 2.5-1 1.2-2.1 2.4-1 1.1-2 2.2-1 1-2.1 2-1 1-2.1 2-1.1 0.9-2.3 1.8-1.2-0.8-2.4-1.7-1.1-0.9-2.2-1.9-1.1-1-2.1-2.1-1.1-1.1-2-2.3-0.8-1-1.6-2.1-0.7-1-1.4-2.2-0.6-1.1-1.2-2.3-0.6-1.1-1.1-2.4-0.5-1.1-0.8-2.2-0.4-1.1-0.7-2.3-0.3-1.2-0.4-2.3-0.2-1.2-0.3-2.4-0.1-1.1-0.1-2.3 0-1.1 0-2.2 0.1-1.1 0.3-2.3 0.2-1.1 0.4-2.2zm109.9 34.9q-1.5 1.1-3.1 2.2-1.6 1-3.2 2-1.7 0.9-3.4 1.8-1.7 0.9-3.4 1.6-2 0.9-4 1.6-2 0.8-4 1.4-2 0.7-4.1 1.2-2 0.6-4.1 1-2.4 0.5-4.7 0.8-2.4 0.4-4.8 0.6-2.4 0.2-4.8 0.4-2.4 0.1-4.8 0-3.1 0.1-6.3 0-3.1-0.2-6.2-0.5-3.2-0.4-6.3-0.9-3.1-0.5-6.1-1.2-2.4-0.6-4.7-1.3-2.4-0.7-4.7-1.6-2.2-0.9-4.4-1.9-2.3-1.1-4.4-2.3 1.4-0.9 2.7-1.8 1.4-1 2.7-2 1.3-1 2.5-2.1 1.3-1.1 2.5-2.2 1.2-1.1 2.4-2.3 1.2-1.2 2.3-2.5 1.2-1.2 2.3-2.5 1.1-1.3 2.1-2.6 1.1-1.4 2.2-2.8 1.1-1.4 2.2-2.9 1-1.4 2-2.9 1-1.5 2-3 4-6.1 7.8-13 5 3.3 10.3 6.8 5.3 3.6 10.8 6.9 5.5 3.3 11 6.1 1.4 0.8 2.8 1.4 1.4 0.7 2.8 1.3 1.4 0.6 2.8 1.2 1.4 0.6 2.9 1.1 1.4 0.5 2.8 0.9 1.4 0.5 2.8 0.9 1.4 0.3 2.8 0.6 1.5 0.4 2.9 0.6 1.4 0.2 2.8 0.4 1.4 0.1 2.8 0.2 1.4 0 2.8 0 1.4-0.1 2.8-0.2-1.1 1.3-2.3 2.6-1.2 1.2-2.5 2.4-1.2 1.2-2.6 2.3-1.3 1.1-2.7 2.2zm11.9-11.8q-1.4 0.1-2.7 0.1-1.4 0.1-2.7 0-1.4-0.1-2.7-0.3-1.4-0.1-2.7-0.4-1.4-0.3-2.8-0.7-1.4-0.3-2.7-0.8-1.4-0.4-2.7-0.9-1.4-0.5-2.7-1-1.4-0.6-2.8-1.2-1.4-0.7-2.8-1.3-1.3-0.7-2.7-1.4-1.3-0.7-2.6-1.5-5.5-3.1-11-6.7-5.4-3.5-10.9-7.2-5.4-3.6-10.8-6.9 2.5-4.5 5-9.2c4.8-9 9.9-18 14.8-27q4.7-8.5 9.1-16.6 1.2-1.9 2.5-3.8 1.3-2 2.6-3.8 1.3-1.9 2.7-3.7 1.4-1.9 2.9-3.7 1.1-1.3 2.3-2.6 1.1-1.4 2.4-2.6 1.3-1.2 2.6-2.4 1.4-1.1 2.8-2.2 1.2-0.9 2.4-1.7 1.2-0.8 2.6-1.5 1.3-0.6 2.6-1.2 1.4-0.6 2.8-1 1.4-0.4 2.8-0.8 1.4-0.3 2.9-0.5 1.4-0.2 2.9-0.3 1.4-0.1 2.9-0.1 1.9-0.1 3.8 0.4 1.8 0.6 3.3 1.7 1.5 1.2 2.5 2.8 1 1.6 1.4 3.5 0.2 1.1 0.3 2.2 0.2 1 0.1 2.1 0 1.1-0.1 2.2-0.1 1-0.4 2.1-0.2 1.3-0.6 2.5-0.3 1.3-0.8 2.5-0.4 1.3-1 2.5-0.5 1.1-1.1 2.3-0.7 1.3-1.5 2.6-0.8 1.3-1.7 2.5-0.9 1.3-1.8 2.4-1 1.2-2 2.3-1.1 1.3-2.3 2.4-1.2 1.2-2.5 2.3-1.3 1-2.7 2-1.3 1-2.7 1.9-1.6 1-3.2 1.8-1.6 0.9-3.3 1.7-1.6 0.7-3.3 1.4-1.7 0.6-3.5 1.2-2 0.6-4 1-2 0.5-4 0.8-2 0.3-4.1 0.4-2 0.1-4.1 0.1l0.3 0.8q2.4 0 4.7 0.1 2.3 0.2 4.7 0.5 2.3 0.4 4.6 0.9 2.2 0.5 4.5 1.2 1.8 0.6 3.5 1.4 1.7 0.7 3.4 1.6 1.6 0.9 3.2 2 1.5 1.1 2.9 2.3 1.3 1.1 2.5 2.3 1.1 1.2 2.1 2.6 1 1.3 1.8 2.8 0.8 1.4 1.5 2.9 0.6 1.6 1.1 3.1 0.5 1.6 0.8 3.2 0.4 1.6 0.5 3.2 0.2 1.7 0.2 3.3 0 1.7-0.1 3.5-0.1 1.7-0.4 3.4-0.3 1.8-0.7 3.5-0.5 1.6-1 3.3-0.6 1.8-1.4 3.5-0.8 1.8-1.6 3.5-0.9 1.6-2 3.2-1 1.7-2.1 3.2z"/>
	<path class="s0" d="m425.5 163.4q-3.8-0.8-7.7-1.4-3.8-0.5-7.6-1-3.9-0.4-7.8-0.7-3.8-0.3-7.7-0.4c-23.8-0.5-47.3-0.8-70 7.7-0.2 0.1 1.5-0.2 4.6-0.7q9.1-1.4 18.3-2.3 9.2-0.8 18.4-1.2 9.2-0.3 18.4-0.1 9.3 0.2 18.4 1c24.2 2.1 47.2 10.3 71.3 12.7 22.3 2.2 46.2 1 67.4-7.4 21.3-8.5 35.3-25 47.8-43.7q0.7-1.1 1.4-2.3l13.1-22.5q3.5-5.8 5.6-9.4h-8.1c-0.5 1-1.1 2-1.8 3.2-0.5 1-1.2 2.3-2 3.7-0.7 1.3-1.6 2.9-2.5 4.5q-1.8 2.7-4 5.7c-1.5 2-3.1 4-4.8 6q-2.5 3-4.9 5.7-2.4 2.7-4.5 4.8-2.1 2.1-3.5 3.3-1.5 1.3-2 1.3-0.8 0-0.5-1.4 0.1-0.5 0.2-1 0.2-0.4 0.3-0.9 0.2-0.5 0.3-1 0.2-0.4 0.4-0.9 1-2.4 2.6-5.5 1.6-3.1 3.3-6.6 1.7-3.4 4-7.1c1.5-2.4 2.9-4.7 4.3-6.7q2.3-3.6 4.8-6.9h-7.8q-2 2.7-4.1 6-1.9 2.8-4.2 6.6-2.3 3.7-4.6 8.2c-1.6 3-2.8 5.7-3.9 8.2q-0.3 0.8-0.6 1.6-0.3 0.8-0.6 1.6-0.2 0.9-0.4 1.7-0.2 0.9-0.4 1.7-0.2 0.5-0.2 1.1-0.1 0.6-0.1 1.1 0.1 0.6 0.2 1.1 0.1 0.6 0.2 1.1 0.2 0.4 0.5 0.7 0.3 0.4 0.7 0.6 0.3 0.2 0.8 0.3 0.4 0.1 0.8 0 1.6 0 4.3-2 0.8-0.7 1.6-1.3 0.8-0.6 1.5-1.3 0.8-0.7 1.5-1.4 0.7-0.7 1.4-1.4 3.3-3.2 6.8-7.4 3.5-4.1 6.6-8.2-1.6 2.8-3.2 5.6c-7.2 12.9-21.7 32.3-34.2 40.3q-2.8 1.8-5.6 3.4c-22.4 12.2-48.2 13.8-73 11.9-16.8-1.4-33.1-5.4-49.5-8.3z"/>
</svg>